<svg width="24" height="24" viewBox="0 0 24 24" fill="none" xmlns="http://www.w3.org/2000/svg">
<path fill-rule="evenodd" clip-rule="evenodd" d="M18 12.0002C18 11.8013 17.921 11.6105 17.7803 11.4699C17.6397 11.3292 17.4489 11.2502 17.25 11.2502H8.5605L11.781 8.03122C11.9218 7.89039 12.0009 7.69938 12.0009 7.50022C12.0009 7.30105 11.9218 7.11005 11.781 6.96922C11.6402 6.82839 11.4492 6.74927 11.25 6.74927C11.0508 6.74927 10.8598 6.82839 10.719 6.96922L6.219 11.4692C6.14915 11.5389 6.09374 11.6216 6.05593 11.7128C6.01812 11.8039 5.99866 11.9016 5.99866 12.0002C5.99866 12.0989 6.01812 12.1965 6.05593 12.2877C6.09374 12.3788 6.14915 12.4615 6.219 12.5312L10.719 17.0312C10.8598 17.172 11.0508 17.2512 11.25 17.2512C11.4492 17.2512 11.6402 17.172 11.781 17.0312C11.9218 16.8904 12.0009 16.6994 12.0009 16.5002C12.0009 16.3011 11.9218 16.11 11.781 15.9692L8.5605 12.7502H17.25C17.4489 12.7502 17.6397 12.6712 17.7803 12.5305C17.921 12.3899 18 12.1991 18 12.0002Z" fill="black"/>
</svg>
